PathFileType	4	(X/Y/Z)	example_trial.trc
DataRate	CameraRate	NumFrames	NumMarkers	Units	OrigDataRate	OrigDataStartFrame	OrigNumFrames
100	100	7	20	mm	100	871	2322
Frame#	Time	Can1			Can2			Can3			ElbowLE			ElbowME			Elbow3			Elbow4			Elbow5			Elbow6			ForearmRS			ForearmUL			Forearm3			Forearm4			HandRS			HandUL			Hand3			Hand4			Hand5			Hand6			Hand7			
		X1	Y1	Z1	X2	Y2	Z2	X3	Y3	Z3	X4	Y4	Z4	X5	Y5	Z5	X6	Y6	Z6	X7	Y7	Z7	X8	Y8	Z8	X9	Y9	Z9	X10	Y10	Z10	X11	Y11	Z11	X12	Y12	Z12	X13	Y13	Z13	X14	Y14	Z14	X15	Y15	Z15	X16	Y16	Z16	X17	Y17	Z17	X18	Y18	Z18	X19	Y19	Z19	X20	Y20	Z20	

871	8.7	466.29009012455504	78.96659438101558	119.58530277159167	443.6890123611379	89.86196085250343	122.80594462424918	461.30097379002285	44.05501658961275	122.46332867716004	-0.00990773168129433	-69.45636755288642	0.1709453171233803	-0.49272064829985673	90.44894517021712	0.028706052556682682	103.32518804363697	-34.50462378334807	-10.603877550414087	101.41271203157997	32.95572596402093	-12.794306406059224	92.81810293407467	34.444537105742945	43.16409391660317	94.19812766904813	-33.091848917464496	44.31437311538731	182.68296321557395	1.0771585049136814	77.08219804018147	197.5077372383465	-1.7481672806297137	-20.10652008787014	125.77351682136984	-34.3450335762096	-6.770767782231379	124.27309162083297	32.78550479066379	-9.001362127497742	321.10347920675144	2.4550583965916353	82.27033076970278	329.309279475147	0.07350110406000354	13.305809645261032	412.6380952458373	-29.61651938465034	32.97182168108457	447.1189986653037	-22.03787293482689	34.69706566076655	430.6770710692913	-25.915915729231834	67.56980675891111	440.45698791790437	-21.523107225463377	92.54199938750966	407.7436101377998	-26.234500831353483	85.78892292771488	
872	8.71	466.2625113556298	78.99524265851011	120.13063152225911	443.6664837941371	89.90964447991688	123.35148308176173	461.23170851272243	44.085588323132924	123.0089220299364	-0.022109981435384896	-69.49059178409065	0.22034971540999299	-0.5497969246153502	90.45784685502181	0.18608355080514438	103.32049096728291	-34.555870350303174	-10.393600942682689	101.42593535029084	32.93866694072226	-12.58726867369013	92.70270173249565	34.42705785198748	43.3475625931383	94.09813554825827	-33.11874377211568	44.51371713401739	182.52846465111435	1.0807607932663057	77.4263101028254	197.6595199934538	0.30110274746937193	-19.63115962548801	125.78337913502321	-34.357780651151884	-6.531232193117614	124.27244319596053	32.7497785368761	-8.751703662336388	320.986080468907	2.49320025704899	82.83123719585205	329.464889248896	0.38093527346977396	13.659511702617607	412.52344079529234	-29.627438803236885	33.596256408960045	447.0269498686804	-22.074882257951135	35.324805608810586	430.56552243138475	-25.89428835958898	68.20246599546297	440.80434438321504	-21.475675021538656	93.38767115995634	407.6056891402328	-26.207882849203806	86.43489086043407	
873	8.72	465.9513274278005	79.37368534637548	120.57664262094985	443.3210455471905	90.26417389778861	123.66860251809345	460.9465869521865	44.458079749035875	123.64764493785017	0.028485111378214967	-69.48660380680424	0.20807235313692962	-1.271257544888626	90.30942610070481	0.48503320048294973	103.39500256035441	-34.54188194064652	-10.217767901332156	101.48223764628503	32.97234725450061	-12.411307833425747	92.67792832887362	34.43391834653879	43.487641494863695	94.06056569484436	-33.11592650738972	44.647977120850534	182.44363069042848	1.0723349356817113	77.70879922461958	198.19215294235252	-0.43102839695034945	-18.922156166642512	125.83462221048184	-34.352940717918166	-6.3645227183301065	124.3257924456862	32.772605589020316	-8.552883345274083	320.8740714149842	2.5533443695188396	83.3292622823055	328.982521314692	0.5224389389194073	14.407702755652831	412.535382100566	-29.680464333454022	34.42308436955048	447.15335573972067	-22.50046926519384	36.368977784148086	430.49927303538294	-25.821632053396524	69.03705719519553	440.84300384860177	-21.117592284286	94.15697121803771	407.2998930966753	-25.8289765956424	87.1404853886783	
874	8.73	465.84973480223033	79.32673094633904	121.22970087599779	443.24135440099803	90.24547104269065	124.30528552222428	460.8244965683715	44.42153664765797	124.25918885037439	-0.016317561474629372	-69.48704354751301	0.23757148197909128	-1.0541675368470989	90.40508931129459	0.66151330844063	103.36748000110575	-34.55286990289949	-10.053631575414293	101.46380440938105	32.93461836766715	-12.271469999678763	92.57708747964259	34.43565012009204	43.628541789206764	93.96514385328662	-33.095396178969125	44.81894560709134	182.29201537400832	1.1124518320390582	77.99534212402368	197.6862169089275	-1.9571277469305688	-18.53165925502541	125.79266444269592	-34.39419872703678	-6.123698471380209	124.29677317294117	32.71993783404261	-8.400404930572103	320.72661302813964	2.6040663390912258	83.80883744196204	328.84756808436873	-0.28564958174056443	14.819518018689479	412.4343998067715	-29.664912585685613	34.997933919994296	446.99267699750646	-22.538042848047926	37.01817682777824	430.35813769453046	-25.812516572425416	69.63832312291757	440.2638571408601	-21.442951032821817	94.76996512944834	407.4578535298656	-25.828228337318063	87.60385987463974	
875	8.74	465.59343102689735	79.17420760884673	122.05470376599197	442.97035805170685	90.05807033400244	125.13505460275763	460.6077750556844	44.275329019762346	124.96716014687853	0.04185635413349775	-69.34467212404708	0.09661158316257074	-1.053228142666998	90.44404121925054	0.7005411769914615	103.40244937182419	-34.50645958793888	-10.00348453803008	101.50969791479693	32.98224639175149	-12.18084452147073	92.57180934767888	34.44551667828963	43.706120053669565	93.94026661817321	-33.07619128285069	44.863637260206666	182.2523592187594	1.0837809291792997	78.13672450848092	197.58797785424045	-2.436411844624468	-18.814215413511274	125.82085772437655	-34.34338850117159	-6.036731230124252	124.33102804797133	32.764178314114815	-8.287835482398236	320.6560149077428	2.493003127875248	84.10570070229454	328.570791206268	-0.4820556959964968	15.03464809550913	412.4710475628709	-29.58900116991826	35.35920133730285	446.8700639143371	-22.44566672302675	37.528628091529065	430.3144667408187	-25.84348341750746	70.04997333278325	440.3698540687573	-21.367110930383376	95.28185080819483	407.0926779204206	-26.302609384811284	88.30986082736527	
876	8.75	465.54562834465537	79.07768533046477	122.74290253441353	442.94213043558614	89.98828313236189	125.81411686030174	460.4980754435557	44.17400097664135	125.61646674965164	-0.018222693634212028	-69.49536356643381	0.2361247787324972	-0.6050906580491136	90.5259389600887	0.6235525287158808	103.40879320767462	-34.51945209256874	-9.838455210884781	101.49024909091263	32.9727834138085	-12.050551652863362	92.50743552360031	34.447892498523004	43.83704221507629	93.88024854607485	-33.09793613431708	45.01233227549216	182.12754584147763	1.1202914793084933	78.37726947805882	197.84025135659564	0.45955584429098373	-18.594078947672106	125.83603665351562	-34.35651971865549	-5.8490532150766885	124.31306000368849	32.79137359802684	-8.110081028135664	320.52142139142836	2.580437043890104	84.52102931172305	329.0416376543567	-0.23664540471864015	15.499968085339052	412.36790609727103	-29.545487364208693	35.88421506955994	447.1497985496564	-22.063606703593422	37.77983849939253	430.180731308067	-25.819967988070243	70.60920817881316	439.97294595161173	-21.181947584998586	95.5109959253613	406.9162746612388	-26.285487320948956	88.85288794633917	
877	8.76	465.33934647332063	79.26233705695176	123.24948249595673	442.7025593505311	90.16916472772101	126.26233614368992	460.32246488692203	44.36479578336045	126.21638957062916	0.094770063521187	-69.37586415795306	0.11240174373721618	-0.5843614730418079	90.5681172370276	0.9243230466198157	103.45399357776037	-34.50489506135957	-9.669322559349823	101.54524881760425	32.99266737669681	-11.852522594338128	92.45263015504604	34.47279282012207	43.99859285893719	93.83334770943821	-33.07362582199274	45.15660639955987	182.02165965253104	1.1275648216926015	78.71385866457786	197.90901334307281	-0.35604231691170973	-18.45481216237504	125.88864840859517	-34.29506373870795	-5.666928584246687	124.36378327180225	32.81132034811511	-7.875517889500756	320.4293425955961	2.599712443838598	85.08558813709914	328.57079821796054	-0.025109227804755108	15.73518199067685	412.3614009468592	-29.590736862734875	36.58773705665736	446.7816733744822	-22.477401155010373	38.83055068719305	430.11364937785817	-25.795531301737242	71.32042033016492	440.236984386092	-21.116875481719394	96.325432162319	406.7943966795684	-26.20294529739277	89.52101968998798	
